<svg xmlns="http://www.w3.org/2000/svg" viewBox="0 0 1784 1736" fill="#f9a601" xmlns:v="https://vecta.io/nano"><path d="M1050.24 1401.43c7.78-6.44 15.77-12.63 23.28-19.35 29.35-26.26 52.79-57.23 72-91.44a412.8 412.8 0 0 0 50.29-152.2c9.61-76.17-1.14-149.7-29.55-220.83-24.35-61-59.56-115.2-102-165a836.94 836.94 0 0 0-83.23-84.15c-.82-.73-1.74-1.35-3.11-2.41 18.31 143.35-16 274.3-88.06 397-7.94-69.7-36.73-128.43-89.57-175.87l-8 28.29c-12.23 42.07-30.5 81.65-49.88 120.77-13.6 27.46-26.84 55.09-35.45 84.64-10 34.36-14.43 69.44-11.83 105.15 1.81 25 10.74 47.94 22.42 69.86 19.83 37.21 46.36 69 78.38 96.32l3 2.65a17.58 17.58 0 0 1-3.44-.24c-63.37-23-121.21-55.2-168.77-103.81-51.51-52.65-81.33-115.83-89.95-189-8.14-69.06 2.41-135.75 25.5-200.81 19-53.58 45.5-103.6 73.86-152.66l99.07-170.65c40.8-72.62 74.72-148.38 98.17-228.49 7-23.79 12.49-48 18.68-72l1.41-5.74a34.31 34.31 0 0 1 3.38 2.43c54.87 51.1 108.94 103 161 157 55.89 58 109.41 118 157.31 182.83 32.23 43.61 61.44 89.1 85.84 137.6 34.18 68 56.94 139.41 66.15 215.09 4.34 35.64 6.64 71.41 4.72 107.19-4.07 75.75-28.69 144.32-75.53 204.29-45.14 57.78-102.69 97.67-173.63 117.45-10.54 2.94-21.35 4.91-32 7.33zm-221.81-38.17l.17.32-.38-.02.21-.3z"/></svg>