<svg xmlns="http://www.w3.org/2000/svg" viewBox="0 0 1784 1736" xmlns:v="https://vecta.io/nano"><path d="M910.91 876.36l-438.46 345.79c-77.63-160.66-57.88-382.3 85.29-531.5l76 76.91c-61.29 66.17-92.53 147-98.68 237.79-1.33 19.64 1.15 39.53 2 61.82L910.85 770.9l369.44 292.79c9.84-112.66-20.52-210-92.74-293l75.91-75.94c131.89 135.08 162.55 355.54 83.24 525.28zm589.76-523.23l-72.09 71.95c-1.28 1.28-2.71 2.41-4.54 4-147.6-126.38-318.82-191.3-512.57-192-193.92-.7-365.43 63.52-513.21 188.22Q360 387.08 322.1 349.15c316.71-285.9 836.09-302.87 1178.57 3.98zM492.2 1264.45l86.8-67.18c75.57 125.52 184.28 196.06 331.37 195.48 146.71-.58 254.93-71.43 329.58-197.23l86.38 66.85c-87.39 140.32-211.67 224.58-376.13 236.94-197.66 14.85-349.47-68.42-458-234.86zm57.66-687.04l-75.95-75.88c224.86-201.14 614.57-223.49 873.27 1.68l-76.38 76.4C1167.35 496 1047.28 451.68 911.85 451s-255.99 42.3-361.99 126.41zm138.58 139.05l-75.67-75.66c169.46-138.52 430.88-135 595.47 2.51l-75.83 75.44q-219.97-143.98-443.97-2.29z" fill="#f8a601"/><path d="M902.24 1031.31v72.41h-73.08v-72.41zm93.95 72.69h-73v-72.88h73zM902 1194h-73.09v-72.69H902zm21.07-73h72.85v72.92h-72.85z" fill="#f8a500"/></svg>