<svg xmlns="http://www.w3.org/2000/svg" viewBox="0 0 1784 1736" xmlns:v="https://vecta.io/nano"><path d="M346.68 1453c-18.15-200 88.51-448.91 355.38-550.57-12.33-9.8-25.07-19.06-36.84-29.42-52.74-46.42-88.36-103.6-105-172-4.6-19-6.52-38.62-9.24-58-4.07-29.11 0-57.75 5.53-86.3 26.52-136.45 137.06-242.6 272.36-267.25a353.73 353.73 0 0 1 93.4-4.46c133.92 11.25 255.91 102.33 297.06 239.58 6.41 21.38 9.32 44 12.14 66.22a248.75 248.75 0 0 1 1.57 49.39c-2.12 28.63-6.72 56.8-15.84 84.45-24.3 73.74-69.31 131.23-132.6 175.17-.81.57-1.54 1.25-3.07 2.49 113.87 43.4 205 114.61 271.51 216.33 66.37 101.55 92 213.62 84.48 334.39Zm998.9-90c-11.88-103.79-52.93-193.48-126.34-266.91C1112.63 989.48 983 945.34 833.58 962.88c-111.71 13.11-205.5 63.33-281.13 146.33C487 1181 449.58 1265.83 438.42 1363ZM640 620.84c2.47 17.81 3.6 35.94 7.62 53.4 27.48 119.37 128.2 188.58 235.08 195 22.11 1.33 43.9-2.31 65.45-7.06 96.57-21.26 177.73-102.13 192.26-207.33 5.87-42.43 1.05-83.61-14.69-123.07-39.57-99.17-130.6-155.63-228.22-157.68a262.11 262.11 0 0 0-63 6.57C722.82 406.09 641.36 505.87 640 620.84Z" fill="#f9a601"/></svg>