<svg xmlns="http://www.w3.org/2000/svg" viewBox="0 0 1784 1736" xmlns:v="https://vecta.io/nano"><path d="M716 454.78h-62.2v63.33h94.53v63.69h-94.5v63.26l5.16.22h53a30.6 30.6 0 0 1 4.7.74c-.09.1-.26.24-.24.3a4.49 4.49 0 0 0 .38.62v61l-.75.75H653.7v63.41h94.61v63.62h-95v6l-.1 93c0 4.26 1.61 6.19 5.08 8.31 15.48 9.47 31.15 18.73 45.88 29.27 11.21 8 21.33 17.64 31.55 27 16.14 14.71 30.86 30.82 43 49 10.41 15.61 20.58 31.51 29.23 48.13a285.59 285.59 0 0 1 26.93 75.72c3.12 15.57 5.17 31.37 7 47.15a227.21 227.21 0 0 1 1.89 32.64c-.88 33.58-5.5 66.56-15.55 98.83a347.38 347.38 0 0 1-49.74 100.32 351.56 351.56 0 0 1-81.27 81.44 342.64 342.64 0 0 1-152.93 61.54c-9.32 1.35-18.74 1.94-28.11 2.94a34.16 34.16 0 0 0-4.18 1H477a25.77 25.77 0 0 0-3.7-1c-12.1-1.39-24.26-2.41-36.32-4.13a303.4 303.4 0 0 1-62.73-16.35 354.45 354.45 0 0 1-136.74-91.8 337.5 337.5 0 0 1-46.85-64.55c-12.25-21.88-22.7-44.5-29.58-68.59a464.14 464.14 0 0 1-10.77-45.92 315.77 315.77 0 0 1-4.16-40.16c-.68-14.5-1.27-29.17 0-43.58 6.47-70.76 31.23-134.44 76.45-189.54a417.35 417.35 0 0 1 39.6-41.83 324 324 0 0 1 69.24-48.25c3.48-1.82 4.6-3.66 4.59-7.47q-.13-248-.08-496 0-135-.12-270c0-13.12 9.35-26.78 22.23-30.42a29.29 29.29 0 0 1 7.85-1l252.5-.15c20.08-.07 35.36 14.79 35 35-.53 28.65-.14 57.33-.14 86v6.1h95v63.37h-94.56v63.61h57.5a35.87 35.87 0 0 1 4.81.66l.81.92v61zM590 201.35H399.39v750.78c0 2.5.09 5-.14 7.5-1.09 11.89-7.2 20.68-17.48 26.33-13.19 7.25-27 13.36-39.85 21.2-27.63 16.91-51.29 38.62-71.31 64a288.25 288.25 0 0 0-61.38 160.53c-1.12 19.47-1.24 39.16 2.81 58.45 3.48 16.63 6.35 33.52 11.56 49.62 11 33.89 28.33 64.46 51.28 91.89a285.62 285.62 0 0 0 118.62 84.56c26.06 10 53.06 16.19 80.82 17.53 18.67.89 37.53-.24 56.19-1.84a227.38 227.38 0 0 0 69.89-17.94 351.47 351.47 0 0 0 45.24-22.96c13.49-8.24 26-18.24 38.22-28.36 8.34-6.91 15.68-15.1 23-23.16 7-7.77 14-15.68 20-24.26 14.1-20.28 26-41.74 34.74-65a290.36 290.36 0 0 0 18.3-88.15c.9-18 .83-36.11-2.89-53.9-3.3-15.79-6.16-31.73-10.61-47.2-5.72-19.89-14.63-38.56-25.19-56.4-11.49-19.42-24.52-37.73-40.73-53.5-10.05-9.77-20.33-19.41-31.25-28.16a252 252 0 0 0-54.28-33.14c-5.87-2.65-11.95-5.83-16.44-10.28-6.47-6.41-8.62-14.9-8.61-24.36q.24-373.5.13-747z" fill="#f9a501"/><path d="M1638 1258l-2.92 17.93c-10.66 63-61.37 115.46-123.86 128-86.37 17.38-169.19-37-187.88-123.24-6.41-29.58-2.73-58.11 8-86.14 20.69-53.86 47.35-104.73 77.41-153.81 22-35.86 45.21-70.95 67.89-106.38.54-.83 1.2-1.59 2.2-2.92l9.06 13.16c40.43 59.87 78.36 121.23 110.34 186.09 13.15 26.66 25.78 53.63 33.81 82.39 2.39 8.59 3.32 17.58 5 26.38a5.36 5.36 0 0 0 1 1.51zm-159.09-208.66c-1.33 2-2.35 3.23-3.16 4.64l-56.27 97.62a363.42 363.42 0 0 0-31.08 72.8c-4.13 13.93-6 27.88-3.2 42.32 7.85 40.13 41.12 71.77 80.33 76.25 43.48 5 82.12-16 99.74-54.32 7.28-15.86 11.44-32.63 7.3-49.94a285 285 0 0 0-13.35-42.21c-17.87-43.46-41.38-84-65.61-124.18-4.61-7.64-9.61-15.05-14.7-22.98zm-301.36-514.18l45.75 70c22.43 35.22 43.43 71.28 62 108.68 11.76 23.65 23.14 47.53 29.92 73.19 11.61 43.92 2.09 83.87-24.87 119.58-23.75 31.48-55.83 50.45-95 55-55.15 6.35-99.88-13.71-133.45-57.76-17.73-23.27-26.36-50.13-27.5-79.34-.83-21 4.71-40.82 12.21-60.18 17.18-44.34 39.83-85.94 64.56-126.36 20.3-33.19 42-65.53 63.07-98.23.82-1.31 1.76-2.46 3.31-4.58zm-.76 117.69l-33.18 56.9c-15.9 28.81-31.21 57.93-41.13 89.52-3.69 11.75-5.79 23.48-3.35 35.8 11.31 57.26 78 83.32 125.26 49.06 21.54-15.6 40.12-49.81 28-84a516.4 516.4 0 0 0-26.14-61.39c-14.78-29.09-30.62-57.53-49.46-85.89zM1479.35 139l45.09 69.38c25.29 40.48 48.84 81.94 67.15 126.16 8.06 19.44 14.86 39.15 14.24 60.66-1.69 58.86-45.7 110.39-103.29 120.81-68.73 12.43-132.89-30.33-148-98.65-6.1-27.46-.69-53.35 9.83-78.8 17.71-42.84 39.77-83.4 64.3-122.61 15.51-24.81 32-49 48.1-73.45.49-.79 1.13-1.5 2.58-3.5zm0 118.89c-.87.63-1.19.75-1.34 1-21.16 31.74-39.4 65.09-53.7 100.44-5 12.5-10.33 25.32-8.47 39.52 3.07 23.48 15.16 40.66 36.66 50.34s43 7.87 62.57-5.58c24.26-16.68 32.12-42.55 22.6-72.12-9.43-29.28-24.41-56-39.36-82.62-5.9-10.52-12.59-20.61-18.96-30.95z" fill="#f9a602"/><path d="M716.8 393l-.81-.92zm-.8 61.78l.75-.75zm.8 192.22a4.49 4.49 0 0 1-.38-.62c0-.06.15-.2.24-.3a.73.73 0 0 1 .14.92zm-.8 61.78l.75-.75zm-190 381.1h-15.21c86 9.23 150.35 85.91 141.89 173.88a158.55 158.55 0 0 1-158.82 143.5c-80.58-.45-147.39-61-156.76-139.68-10.67-89.42 54.79-169.08 142.69-177.6h-16.48V518.67H526z" fill="#f9a501"/></svg>